<?xml version="1.0" encoding="utf-8"?>
<svg  xmlns="http://www.w3.org/2000/svg" width="240" height="66" viewBox="0 0 240 66">
  <path d="M41.42,19.72h-27v8.5h27a4.25,4.25,0,0,1,4.24,4.25v10a4.24,4.24,0,0,1-4.24,4.24H14.75a4.23,4.23,0,0,1-4.21-3.85A14.61,14.61,0,0,1,2,35.9v6.56A12.75,12.75,0,0,0,14.75,55.19H41.42A12.75,12.75,0,0,0,54.17,42.46v-10A12.77,12.77,0,0,0,41.42,19.72" fill="#ff6a4d" class="main">
  </path>
  <path d="M14.75,41.64h27V33.15h-27A4.26,4.26,0,0,1,10.5,28.9v-10a4.25,4.25,0,0,1,4.25-4.25H41.42a4.24,4.24,0,0,1,4.21,3.85,14.65,14.65,0,0,1,8.53,7V18.91A12.75,12.75,0,0,0,41.42,6.17H14.75A12.76,12.76,0,0,0,2,18.91v10A12.76,12.76,0,0,0,14.75,41.64" fill="#ff6a4d" class="main">
  </path>
  <path d="M64.6,32.17h18c-.5-6.07-5-8.12-8.63-8.12a9.31,9.31,0,0,0-9.36,8.12m-.13,4.4c.81,6,5.27,9.3,11.29,9.3a17.38,17.38,0,0,0,10.55-3.79v6a21.69,21.69,0,0,1-10.92,2.85c-9.43,0-16.5-6.32-16.5-15.93S65.9,19,74.09,19C81.53,19,88,24.23,88,33.78a19.72,19.72,0,0,1-.18,2.79Z" fill="#343d47">
  </path>
  <path d="M117.27,48.78a19.7,19.7,0,0,1-9.12,2.11c-9.68,0-16.57-6.69-16.57-15.75C91.58,25.72,99,19,108.52,19a18.36,18.36,0,0,1,8.25,1.92v5.77a16.1,16.1,0,0,0-8.5-2.6,10.68,10.68,0,0,0-11,11c0,6.27,4.65,10.67,11.23,10.67a14.23,14.23,0,0,0,8.81-3Z" fill="#343d47">
  </path>
  <path d="M121.67,38.36V19.69h5.59V37.31c0,3.35.43,5.09,1.49,6.33a5.93,5.93,0,0,0,4.84,2.11c3.78,0,7.38-2.48,9.55-5.21V19.69h5.58V50.21h-5.58V46.37l-.13-.06a15,15,0,0,1-10.54,4.58,10.87,10.87,0,0,1-8.31-3.41c-1.74-2-2.49-4.77-2.49-9.12" fill="#343d47">
  </path>
  <path d="M155.3,19.69h5.58v4.48l.13.06a11.11,11.11,0,0,1,9.06-4.78,7.76,7.76,0,0,1,2,.24v5.53a9.3,9.3,0,0,0-2.17-.24,10,10,0,0,0-9,5.39V50.21H155.3Z" fill="#343d47">
  </path>
  <path d="M176.52,19.69h5.58V50.21h-5.58Zm2.79-14.38a3.91,3.91,0,1,1-3.91,3.91,3.9,3.9,0,0,1,3.91-3.91" fill="#343d47">
  </path>
  <path d="M191.28,24.72h-4.84v-5h4.84V13.87c0-4,.56-7.07,2.73-9.17a10,10,0,0,1,7.14-2.55,17.91,17.91,0,0,1,4.59.62v5a21.6,21.6,0,0,0-4.35-.56c-3.84,0-4.52,2.61-4.52,5.84v6.62h7.81v5h-7.81V50.21h-5.59Z" fill="#343d47">
  </path>
  <path d="M211.26,63.85l8.25-16.93L206.79,19.69H213l5.33,11.55c1.43,3.1,2.92,6.39,4.16,9.18h.12c1.37-3.05,2.73-6.08,4.16-9.18l5.33-11.55H238L217.34,63.85Z" fill="#343d47">
  </path>
</svg>
